<svg id="Layer_1" data-name="Layer 1" xmlns="http://www.w3.org/2000/svg" viewBox="0 0 692.02 217.08"><defs><style>.cls-1{fill:#fff;}.cls-2{fill:#ff1c00;}</style></defs><path class="cls-1" d="M232.08,252.32q0,50.4-39.9,65.1l53.1,75h-57.6l-46.5-66.9h-32.4v66.9H62V182.72h79.5q48.9,0,69.75,16.5T232.08,252.32Zm-56.4,24.9q8.7-7.8,8.7-24.75t-9-23.25q-9-6.3-31.5-6.3h-35.1V285H143Q167,285,175.68,277.22Z" transform="translate(-61.98 -177.92)"/><path class="cls-1" d="M431.28,182.72v41.7H326.88v43.2h93.9v39.9h-93.9V351h107.7v41.4H280.08V182.72Z" transform="translate(-61.98 -177.92)"/><path class="cls-1" d="M572.58,351q34.5,0,56.4-27.3l30,30.9q-35.7,40.2-84.15,40.2T495,364.22q-31.35-30.6-31.35-77.25t31.95-77.85q31.95-31.2,78.15-31.2,51.6,0,86.4,39.3l-29.1,33q-22.2-27.6-55.2-27.6-26.4,0-45.15,17.25T512,286.37q0,29.25,17.7,46.95T572.58,351Z" transform="translate(-61.98 -177.92)"/><circle class="cls-2" cx="652.52" cy="177.58" r="39.5"/></svg>